# AST/ASF file generated using VICON BodyLanguage
# -----------------------------------------------
:version 1.10
:name VICON
:units
  mass 1.0
  length 0.45
  angle deg
:documentation
   .ast/.asf automatically generated from VICON data using
   VICON BodyBuilder and BodyLanguage model FoxedUp or BRILLIANT.MOD
:root
   order TX TY TZ RX RY RZ
   axis XYZ
   position 0 0 0  
   orientation 0 -0 0 
:bonedata
  begin
     id 1 
     name lhipjoint
     direction 0.432694 -0.693742 0.575759 
     length 2.19277 
     axis 0 -0 0  XYZ
  end
  begin
     id 2 
     name lfemur
     direction 0.34202 -0.939693 0  
     length 6.69022  
     axis 0 -0 20  XYZ
    dof rx ry rz
    limits (-160.0 20.0)
           (-70.0 70.0)
           (-60.0 70.0)
  end
  begin
     id 3 
     name ltibia
     direction 0.34202 -0.939693 0   
     length 6.50337   
     axis 0 -0 20   XYZ
    dof rx
    limits (-10.0 170.0)
  end
  begin
     id 4 
     name lfoot
     direction 0.158999 -0.435969 0.885805   
     length 2.70564   
     axis -90 -1.13533e-015 20   XYZ
    dof rx rz
    limits (-45.0 90.0)
           (-70.0 20.0)
  end
  begin
     id 5 
     name ltoes
     direction -0.00592919 0.00964381 0.999936   
     length 1.29929   
     axis -90 -1.13533e-015 20   XYZ
    dof rx
    limits (-90.0 20.0)
  end
  begin
     id 6 
     name rhipjoint
     direction -0.414359 -0.700339 0.581234   
     length 2.17212  
     axis 0 -0 0  XYZ 
  end
  begin
     id 7 
     name rfemur
     direction -0.34202 -0.939693 0   
     length 7.17659   
     axis 0 -0 -20   XYZ
    dof rx ry rz
    limits (-160.0 20.0)
           (-70.0 70.0)
           (-70.0 60.0)
  end
  begin
     id 8 
     name rtibia
     direction -0.34202 -0.939693 0   
     length 6.36669   
     axis 0 -0 -20   XYZ
    dof rx
    limits (-10.0 170.0)
 end
 begin
     id 9 
     name rfoot
     direction -0.137064 -0.37658 0.916188   
     length 2.22351  
     axis -90 1.13533e-015 -20   XYZ
    dof rx rz
    limits (-45.0 90.0)
           (-20.0 70.0)
  end
  begin
     id 10 
     name rtoes
     direction -0.000784077 -0.00289101 0.999996   
     length 1.09522   
     axis -90 1.13533e-015 -20   XYZ
    dof rx
    limits (-90.0 20.0)
  end
  begin
     id 11 
     name lowerback
     direction -0.0176242 0.984912 -0.172157   
     length 1.65301   
     axis 0 -0 0   XYZ
    dof rx ry rz
    limits (-20.0 45.0)
           (-30.0 30.0)
           (-30.0 30.0)
  end
  begin
     id 12 
     name upperback
     direction -0.00218128 0.998776 -0.0494072   
     length 1.67776   
     axis 0 -0 0   XYZ
    dof rx ry rz
    limits (-20.0 45.0)
           (-30.0 30.0)
           (-30.0 30.0)
  end
  begin
     id 13 
     name thorax
     direction 0.00544186 0.999658 0.0255711   
     length 1.72293   
     axis 0 -0 0   XYZ
    dof rx ry rz
    limits (-20.0 45.0)
           (-30.0 30.0)
           (-30.0 30.0)
  end
  begin
     id 14 
     name lowerneck
     direction -0.105325 0.983841 0.144785   
     length 2.14226   
     axis 0 -0 0   XYZ
    dof rx ry rz
    limits (-20.0 45.0)
           (-30.0 30.0)
           (-30.0 30.0)
  end
  begin
     id 15 
     name upperneck
     direction 0.0547957 0.988053 -0.144041   
     length 2.17508   
     axis 0 -0 0   XYZ
    dof rx ry rz
    limits (-20.0 45.0)
           (-30.0 30.0)
           (-30.0 30.0)
  end
  begin
     id 16
     name head
     direction 0.0247488 0.997534 -0.0656813  
     length 2.20048  
     axis 0 -0 0   XYZ
    dof rx ry rz
    limits (-20.0 45.0)
           (-30.0 30.0)
           (-30.0 30.0)
  end
  begin
     id 17 
     name lclavicle
     direction 0.820559 0.567247 -0.0701026  
     length 4.09615  
     axis 0 -0 0   XYZ
    dof ry rz
    limits (-20.0 10.0)
           (0.0 20.0)
  end
  begin
     id 18 
     name lhumerus
     direction 0.999977 -0.0067566 -9.96392e-005   
     length 4.59333   
     axis -180 -30 -90   XYZ
    dof rx ry rz
    limits (-60.0 90.0)
           (-90.0 90.0)
           (-90.0 90.0)
  end
  begin
     id 19
     name lradius
     direction 1 -4.48982e-011 -2.53425e-027   
     length 2.81151   
     axis -180 -30 -90   XYZ
    dof rx
    limits (-10.0 170.0)
  end
  begin
     id 20
     name lwrist
     direction 1 -4.48939e-011 -7.39254e-028   
     length 1.40576   
     axis 2.56395e-016 90 90   XYZ
    dof ry
    limits (-180.0 0.0)
 end
  begin
     id 21 
     name lhand
     direction 1 -4.48939e-011 -1.47851e-027   
     length 0.895651   
     axis 9.43423e-016 90 90   XYZ
    dof rx rz
    limits (-90.0 90.0)
           (-45.0 45.0)
  end
  begin
     id 22 
     name lfingers
     direction 1 -4.48978e-011 -2.95702e-027   
     length 0.722097   
     axis 1.88685e-015 90 90   XYZ
    dof rx
    limits (0.0 90.0)
  end
  begin
     id 23
     name lthumb
     direction 0.707107 -6.34931e-011 0.707107   
     length 1.03679   
     axis -90 45 -9.86935e-015   XYZ
    dof rx rz
    limits (-45.0 45.0)
           (-45.0 45.0)
  end
  begin
     id 24 
     name rclavicle
     direction -0.831414 0.553102 -0.0531864   
     length 4.24872  
     axis 0 -0 0   XYZ 
    dof ry rz
    limits (-10.0 20.0)
           (-20.0 0.0)
  end
  begin
     id 25 
     name rhumerus
     direction -0.999916 -0.000939607 0.0129331  
     length 4.74834   
     axis -180 30 90   XYZ
    dof rx ry rz
    limits (-90.0 60.0)
           (-90.0 90.0)
           (-90.0 90.0)
  end
  begin
     id 26 
     name rradius
     direction -1 -4.48956e-011 -1.31752e-027   
     length 2.79907   
     axis -180 30 90   XYZ
    dof rx
    limits (-10.0 170.0)
  end
  begin
     id 27 
     name rwrist
     direction -1 -4.4897e-011 -7.39254e-028   
     length 1.39954   
     axis 2.56395e-016 -90 -90   XYZ
    dof ry
    limits (-180.0 0.0)
  end
  begin
     id 28
     name rhand
     direction -0.999997 -0.00250697 0.000800838   
     length 0.953304   
     axis 9.43423e-016 -90 -90   XYZ
    dof rx rz
    limits (-90.0 90.0)
           (-45.0 45.0)
  end
  begin
     id 29
     name rfingers
     direction -1 -4.48954e-011 -2.95702e-027   
     length 0.763342   
     axis 1.88685e-015 -90 -90   XYZ
    dof rx
    limits (0.0 90.0)
  end
  begin
     id 30
     name rthumb
     direction -0.709701 -0.00217037 0.7045   
     length 1.10115   
     axis -90 -45 9.86935e-015   XYZ
    dof rx rz
    limits (-45.0 45.0)
           (-45.0 45.0)
  end
:hierarchy
  begin
    root lhipjoint rhipjoint lowerback
    lhipjoint lfemur
    lfemur ltibia
    ltibia lfoot
    lfoot ltoes
    rhipjoint rfemur
    rfemur rtibia
    rtibia rfoot
    rfoot rtoes
    lowerback upperback
    upperback thorax
    thorax lowerneck lclavicle rclavicle
    lowerneck upperneck
    upperneck head
    lclavicle lhumerus
    lhumerus lradius
    lradius lwrist
    lwrist lhand lthumb
    lhand lfingers
    rclavicle rhumerus
    rhumerus rradius
    rradius rwrist
    rwrist rhand rthumb
    rhand rfingers
  end

#!OML:ASF G:\ViconDB\ViconDB\414\test\team2\shane.ASF
:FULLY-SPECIFIED
:DEGREES
101
root 8.29985 16.4381 4.69389 5.46871 8.41616 -5.02568
lowerback 13.6727 -5.76661 -0.486414
upperback 4.83778 -7.5273 3.45588
thorax -1.96705 -3.77833 4.99469
lowerneck -17.9119 -1.40108 -13.2201
upperneck 29.8376 -0.728719 9.24486
head 13.0395 -0.613985 5.82024
rclavicle 5.87409e-014 6.75868e-015
rhumerus -82.778 24.6568 -79.7269
rradius 49.7285
rwrist 37.042
rhand -46.186 -14.3881
rfingers 7.12502
rthumb -18.9246 -43.4875
lclavicle 5.87409e-014 6.75868e-015
lhumerus -25.054 -28.1483 91.4533
lradius 94.1725
lwrist -20.6063
lhand -51.9396 6.53662
lfingers 7.12502
lthumb -24.4496 34.9963
rfemur -44.8783 -6.80456 20.6034
rtibia 67.8618
rfoot -15.6338 5.58369
rtoes -11.0397
lfemur 29.6246 5.9749 -4.71141
ltibia 8.5875e-014
lfoot -6.17159 -13.6789
ltoes -31.5871
102
root 8.28474 16.5277 5.22862 5.46968 8.2882 -5.14283
lowerback 13.2326 -5.92844 -0.169588
upperback 4.85348 -7.70847 3.60589
thorax -1.7197 -3.87366 4.94735
lowerneck -18.3152 -1.28574 -13.2853
upperneck 30.1083 -0.467408 9.17166
head 13.2015 -0.520911 5.86607
rclavicle 5.76476e-015 -2.04748e-014
rhumerus -84.8199 25.043 -82.2995
rradius 52.113
rwrist 34.5035
rhand -46.8067 -15.1326
rfingers 7.12502
rthumb -19.5215 -44.1726
lclavicle 5.76476e-015 -2.04748e-014
lhumerus -25.6419 -27.7404 91.3329
lradius 94.28
lwrist -20.3353
lhand -51.8506 6.59064
lfingers 7.12502
lthumb -24.3643 35.0618
rfemur -44.8422 -6.57449 21.2056
rtibia 62.5014
rfoot -14.6142 6.07535
rtoes -13.4845
lfemur 30.7145 5.3958 -4.11699
ltibia 8.90555e-014
lfoot -0.655249 -14.3852
ltoes -28.5607
103
root 8.27465 16.6098 5.76136 5.46231 8.19148 -5.0704
lowerback 12.8734 -6.06342 -0.00787721
upperback 4.82882 -7.87367 3.75727
thorax -1.53863 -3.96049 4.9952
lowerneck -18.6305 -1.12936 -13.2021
upperneck 30.3637 -0.0899909 8.74465
head 13.3259 -0.408132 5.75578
rclavicle -3.85642e-014 9.93923e-015
rhumerus -86.7325 25.5024 -84.7238
rradius 54.9396
rwrist 32.0375
rhand -46.8719 -15.9607
rfingers 7.12502
rthumb -19.5841 -44.9943
lclavicle -3.85642e-014 9.93923e-015
lhumerus -26.2321 -27.1329 91.429
lradius 93.9418
lwrist -20.6547
lhand -51.776 6.85211
lfingers 7.12502
lthumb -24.2928 35.3329
rfemur -44.5295 -6.80698 21.6721
rtibia 57.0867
rfoot -13.0841 5.86701
rtoes -16.0454
lfemur 31.8552 4.78503 -3.79302
ltibia -6.67916e-014
lfoot 4.66705 -14.7728
ltoes -24.9137
104
root 8.26995 16.6652 6.29292 5.38626 7.99417 -4.93553
lowerback 12.5096 -6.16504 0.267905
upperback 4.80713 -7.9866 3.75436
thorax -1.3953 -4.01621 4.81206
lowerneck -18.9066 -1.01512 -13.1749
upperneck 30.7251 0.160482 8.5556
head 13.5052 -0.332366 5.73995
rclavicle -3.85642e-014 9.93923e-015
rhumerus -86.7325 25.5024 -84.7238
rradius 54.9396
rwrist 32.0375
rhand -46.8719 -15.9607
rfingers 7.12502
rthumb -19.5841 -44.9943
lclavicle 7.36497e-014 -1.43125e-014
lhumerus -27.0408 -26.7447 91.4847
lradius 93.5648
lwrist -20.7194
lhand -51.6832 6.53357
lfingers 7.12502
lthumb -24.2038 35.0262
rfemur -44.0572 -7.32793 22.1715
rtibia 51.9015
rfoot -12.0561 5.57568
rtoes -16.7565
lfemur 33.2437 4.24711 -3.58341
ltibia 2.54444e-014
lfoot 9.00499 -14.9578
ltoes -18.7178
105
root 8.2694 16.7043 6.81985 5.28921 7.93402 -4.66008
lowerback 12.1899 -6.23346 0.351924
upperback 4.74358 -8.07595 3.81415
thorax -1.28586 -4.06237 4.80359
lowerneck -19.0232 -0.927497 -13.0372
upperneck 30.9766 0.400846 8.1103
head 13.6109 -0.280494 5.58696
rclavicle -3.85642e-014 9.93923e-015
rhumerus -86.7325 25.5024 -84.7238
rradius 54.9396
rwrist 32.0375
rhand -46.8719 -15.9607
rfingers 7.12502
rthumb -19.5841 -44.9943
lclavicle -4.97956e-014 1.09332e-014
lhumerus -27.7171 -26.2907 91.7871
lradius 92.8319
lwrist -20.9356
lhand -51.618 6.56711
lfingers 7.12502
lthumb -24.1413 35.0681
rfemur -43.6164 -9.02231 22.9313
rtibia 47.2191
rfoot -11.0039 5.60108
rtoes -17.2377
lfemur 34.7412 3.56958 -3.57284
ltibia -7.31528e-014
lfoot 11.3793 -14.8404
ltoes -12.9218
106
root 8.2727 16.7139 7.34209 4.99619 7.94284 -4.51282
lowerback 12.0188 -6.3152 0.624884
upperback 4.72716 -8.15663 3.90855
thorax -1.22835 -4.1013 4.74238
lowerneck -19.1412 -0.872482 -13.1158
upperneck 31.285 0.627805 7.79611
head 13.7449 -0.245818 5.52731
rclavicle -3.85642e-014 9.93923e-015
rhumerus -86.7325 25.5024 -84.7238
rradius 54.9396
rwrist 32.0375
rhand -46.8719 -15.9607
rfingers 7.12502
rthumb -19.5841 -44.9943
lclavicle -9.40873e-014 5.12616e-014
lhumerus -28.1896 -25.8514 92.2174
lradius 91.6458
lwrist -21.1299
lhand -51.5007 6.33542
lfingers 7.12502
lthumb -24.0288 34.8513
rfemur -43.0865 -11.325 24.0598
rtibia 43.3561
rfoot -9.88781 5.59514
rtoes -17.3983
lfemur 36.4584 2.79769 -3.47878
ltibia -2.22639e-014
lfoot 12.1244 -14.0346
ltoes -8.44573
107
root 8.27595 16.7143 7.86643 4.63456 8.00133 -4.3987
lowerback 11.7169 -6.31708 1.09769
upperback 4.76511 -8.11994 3.86899
thorax -1.10077 -4.07741 4.40003
lowerneck -19.1755 -0.862339 -12.7678
upperneck 31.5972 0.672695 7.35137
head 13.8901 -0.258212 5.30849
rclavicle -3.85642e-014 9.93923e-015
rhumerus -86.7325 25.5024 -84.7238
rradius 54.9396
rwrist 32.0375
rhand -46.8719 -15.9607
rfingers 7.12502
rthumb -19.5841 -44.9943
lclavicle -4.26145e-014 -1.22004e-014
lhumerus -28.6839 -25.8928 92.537
lradius 90.2161
lwrist -21.0243
lhand -51.4228 6.14354
lfingers 7.12502
lthumb -23.9541 34.6692
rfemur -42.6314 -14.4012 25.5657
rtibia 40.4802
rfoot -9.01532 5.71036
rtoes -17.955
lfemur 38.2086 1.98007 -3.40824
ltibia -9.54166e-014
lfoot 11.7906 -12.5068
ltoes -10.606
108
root 8.26671 16.69 8.39222 4.18798 8.18394 -4.05543
lowerback 11.5807 -6.29906 0.940007
upperback 4.77372 -8.1196 3.90896
thorax -0.990588 -4.08191 4.50861
lowerneck -19.2508 -0.950941 -12.7632
upperneck 31.9812 0.630297 7.11616
head 14.0875 -0.324419 5.2269
rclavicle -3.85642e-014 9.93923e-015
rhumerus -86.7325 25.5024 -84.7238
rradius 54.9396
rwrist 32.0375
rhand -46.8719 -15.9607
rfingers 7.12502
rthumb -19.5841 -44.9943
lclavicle -2.64881e-014 2.3059e-014
lhumerus -29.1649 -25.7882 93.0086
lradius 88.6635
lwrist -20.8069
lhand -51.1032 6.21035
lfingers 7.12502
lthumb -23.6476 34.776
rfemur -42.061 -17.5125 26.7036
rtibia 38.6022
rfoot -8.10374 5.32974
rtoes -17.3635
lfemur 39.944 1.00051 -3.58428
ltibia -1.59028e-014
lfoot 12.2482 -10.6355
ltoes -12.2733
109
root 8.24617 16.6424 8.91628 3.54343 8.33876 -3.84839
lowerback 11.5125 -6.16324 0.893012
upperback 4.83926 -7.95041 3.9254
thorax -0.888331 -4.00016 4.51887
lowerneck -19.0202 -1.10641 -12.6004
upperneck 32.1567 0.428627 6.77455
head 14.1483 -0.446673 5.02833
rclavicle -3.85642e-014 9.93923e-015
rhumerus -86.7325 25.5024 -84.7238
rradius 54.9396
rwrist 32.0375
rhand -46.8719 -15.9607
rfingers 7.12502
rthumb -19.5841 -44.9943
lclavicle 1.0302e-013 -5.60573e-014
lhumerus -29.5728 -26.0683 93.5709
lradius 86.7296
lwrist -20.2656
lhand -50.9161 6.15094
lfingers 7.12502
lthumb -23.4681 34.7396
rfemur -41.2708 -20.3147 27.6822
rtibia 37.6094
rfoot -7.13917 5.45792
rtoes -17.0553
lfemur 35.6999 0.191346 -3.27596
ltibia 13.3265
lfoot 6.57989 -8.71014
ltoes -11.651
